<?xml version="1.0" encoding="utf-8"?>
<!-- Generator: Adobe Illustrator 26.0.3, SVG Export Plug-In . SVG Version: 6.00 Build 0)  -->
<svg version="1.1" id="Layer_1" xmlns="http://www.w3.org/2000/svg" xmlns:xlink="http://www.w3.org/1999/xlink" x="0px" y="0px"
	 viewBox="0 0 612 136.4" style="enable-background:new 0 0 612 136.4;" xml:space="preserve">
<style type="text/css">
	.st0{fill:#FFFFFF;}
</style>
<g>
	<path class="st0" d="M100.8,108.1l-0.5,0.4c-5.1,3.8-15.3,4.8-20.6,4.8c-12.1,0-22.2-4.3-30.9-13c-8.7-8.8-12.9-18.9-12.9-31.1
		c0-12.2,4.2-22.3,12.9-31c8.7-8.7,18.8-12.9,30.9-12.9c12.8,0,24.6,6,30.8,11.2l0.5,0.4V21.4c-10.3-6-20.9-9-31.3-9
		c-15.5,0-29.1,5.6-40.2,16.7c-11.2,11.1-16.8,24.6-16.8,40c0,9.8,2.5,19.2,7.5,27.9c5,8.7,11.9,15.7,20.5,20.9
		c8.7,5.3,18.2,7.9,28.2,7.9h1.5c10.7,0,20.5-2.7,29.1-8.1l4-2.7V60.8l-12.7-0.2V108.1z"/>
</g>
<polygon class="st0" points="230.5,64.1 265,106.7 265.5,106.5 265.4,33.5 265.4,33.3 253.7,33.3 253.7,73.8 219.3,32 218.7,31.8 
	218.7,104.5 230.5,104.5 "/>
<path class="st0" d="M165.5,59.3l9.7,23.3h-18.4L165.5,59.3z M153.4,93.2h25.3l4.9,11.1l0,0.2h12.5l-31-72.6l-0.1-0.1l-28.3,72.4
	l-0.1,0.3H149L153.4,93.2z"/>
<g>
	<path class="st0" d="M381.5,51.2c4.4-4.7,10.6-7.4,17.2-7.4c13.5,0,24.4,11.2,24.4,25.1c0,6.9-2.4,12.9-7.2,17.8
		c-4.4,4.6-10.6,7.4-17.2,7.4c-13.5,0-24.4-11.3-24.4-25.2C374.3,62,376.8,56,381.5,51.2 M398.8,105.9c9.8,0,19-4,25.6-10.8
		C431,88.2,435,79,435,68.9c0-10-4-19.3-10.6-26.1c-6.7-6.8-15.8-10.8-25.6-10.8c-9.8,0-19,4-25.7,10.8
		c-6.6,6.8-10.6,16.1-10.6,26.1c0,10.1,3.9,19.3,10.6,26.2C379.8,101.9,389,105.9,398.8,105.9"/>
	<path class="st0" d="M305.3,45.1c14.1,0.6,24.3,10.5,24.3,23.6c0,13.1-10.4,23.3-24.3,23.9V45.1z M331,93.9
		c6.6-6.5,10.5-15.3,10.5-25.2c0-9.8-3.8-18.7-10.6-25.1c-6.7-6.4-16-10.2-26.4-10.4h-11v71.3h11.3
		C315.2,104.3,324.4,100.4,331,93.9"/>
</g>
<rect x="581.7" y="33.2" class="st0" width="11.8" height="71.3"/>
<polygon class="st0" points="495.7,92.7 470.2,92.7 470.2,33.2 458.3,33.2 458.3,104.5 495.7,104.5 "/>
<polygon class="st0" points="531.3,80.4 551.5,80.4 551.5,68.3 531.3,68.3 531.3,45.3 557.3,45.3 557.3,33.2 519.2,33.2 
	519.2,104.5 531.3,104.5 "/>
</svg>
